<?xml version="1.0" standalone="no"?><!DOCTYPE svg PUBLIC "-//W3C//DTD SVG 1.1//EN" "http://www.w3.org/Graphics/SVG/1.1/DTD/svg11.dtd"><svg t="1545304780848" class="icon" style="" viewBox="0 0 1024 1024" version="1.1" xmlns="http://www.w3.org/2000/svg" p-id="1097" xmlns:xlink="http://www.w3.org/1999/xlink" width="32" height="32"><defs><style type="text/css"></style></defs><path d="M511.999488 112.252597c106.790188 0 207.169363 41.594327 282.639219 117.108185 75.512834 75.490322 117.086695 175.869496 117.086695 282.639219 0 106.791212-41.573861 207.148897-117.086695 282.661731-75.512834 75.491345-175.892009 117.086695-282.639219 117.086695-106.748233 0-207.170386-41.594327-282.640242-117.108185-75.512834-75.490322-117.086695-175.869496-117.086695-282.639219s41.573861-207.148897 117.086695-282.639219C304.829102 153.846924 405.250232 112.252597 511.999488 112.252597M511.999488 65.290005c-119.312386 0-231.512794 46.480614-315.882344 130.850164C111.749642 280.488229 65.290517 392.667148 65.290517 512s46.459125 231.491305 130.827651 315.858808c84.368526 84.391039 196.569958 130.850164 315.882344 130.850164 119.311363 0 231.467769-46.481637 315.837318-130.850164 84.412528-84.347037 130.872676-196.525955 130.872676-315.858808S912.249335 280.508695 827.835783 196.140169C743.467257 111.750153 631.310851 65.290005 511.999488 65.290005L511.999488 65.290005 511.999488 65.290005zM511.999488 65.290005" p-id="1098" fill="#ffffff"></path><path d="M633.273553 296.627814c-29.05371-25.955138-67.005067-38.933731-113.902166-38.933731-53.134151 0-95.187943 15.595186-125.985366 46.873564-30.886451 31.234375-46.328142 73.789587-46.328142 127.687124l0.086981 0c0.785899 16.905018 14.744819 30.40652 31.889291 30.40652 17.143449 0 31.104415-13.501502 31.888268-30.40652l0.044002 0c0-0.39295 0-0.784876 0-1.199315 0-0.10847 0.044002-0.239454 0.044002-0.348947 0-0.065492-0.044002-0.130983-0.044002-0.218988 0.523933-79.94068 35.640732-119.899764 105.35142-119.899764 26.960025 0 49.251727 7.829316 66.745147 23.426549 17.493419 15.616676 26.218128 35.639708 26.218128 60.069097 0 28.464285-16.22759 57.300031-48.727795 86.528726l-24.167422 21.550829c-23.64349 21.157879-38.868239 39.545668-45.543266 55.140855-6.674003 15.639189-9.990538 40.831964-9.990538 75.600839l0.044002 0.064468c-0.088004 0.89437-0.174985 1.788739-0.174985 2.683109 0 16.425088 13.349029 29.730115 29.751604 29.730115 15.70468 0 28.529777-12.084223 29.6636-27.482935l0.086981-0.086981 0.349971-10.949376c0-35.794228 16.925485-67.508533 50.952462-95.231945 56.973596-46.568618 85.416392-91.196025 85.416392-133.751237C676.941098 356.327498 662.414243 322.562487 633.273553 296.627814L633.273553 296.627814zM633.273553 296.627814" p-id="1099" fill="#ffffff"></path><path d="M471.821417 739.063459c0 10.512425 4.318352 20.938891 11.734252 28.398794 7.459902 7.459902 17.929348 11.799744 28.443819 11.799744 10.512425 0 20.982894-4.339842 28.442796-11.799744 7.371898-7.459902 11.734252-17.886369 11.734252-28.398794 0-10.535961-4.362354-21.004383-11.734252-28.421306-7.459902-7.458879-17.929348-11.778254-28.442796-11.778254-10.513448 0-20.983917 4.319375-28.443819 11.778254C476.139769 718.058053 471.821417 728.527498 471.821417 739.063459L471.821417 739.063459zM471.821417 739.063459" p-id="1100" fill="#ffffff"></path></svg>