<?xml version="1.0" encoding="UTF-8"?>
<svg width="500px" height="500px" viewBox="0 0 22 22" version="1.1" xmlns="http://www.w3.org/2000/svg" xmlns:xlink="http://www.w3.org/1999/xlink">
    <!-- Generator: Sketch 50.2 (55047) - http://www.bohemiancoding.com/sketch -->
    <title>币种logo copy 6</title>
    <desc>Created with Sketch.</desc>
    <defs>
        <linearGradient x1="50%" y1="0%" x2="50%" y2="100%" id="linearGradient-1">
            <stop stop-color="#FFFFFF" offset="0%"></stop>
            <stop stop-color="#CCCCCC" offset="100%"></stop>
        </linearGradient>
    </defs>
    <g id="Page-1" stroke="none" stroke-width="1" fill="none" fill-rule="evenodd">
        <g id="首页夜间版" transform="translate(-579.000000, -981.000000)">
            <g id="Group-55" transform="translate(51.000000, 972.000000)">
                <g id="Group-69" transform="translate(1.000000, 0.000000)">
                    <g id="Group-71" transform="translate(477.000000, 0.000000)">
                        <g id="Group-14" transform="translate(50.000000, 9.000000)">
                            <g id="币种logo-copy-6">
                                <path d="M11,0 C17.0751322,3.71994563e-16 22,4.92486775 22,11 C22,17.0751322 17.0751322,22 11,22 C4.92486775,22 7.43989126e-16,17.0751322 0,11 C-7.43989126e-16,4.92486775 4.92486775,1.11598369e-15 11,0 Z" id="Shape" fill="url(#linearGradient-1)" fill-rule="nonzero"></path>
                                <g id="Group-76" transform="translate(6.000000, 3.000000)">
                                    <path d="M6.49029167,4.79233784 C6.49029167,2.67531081 5.43029167,0.854635135 4.62404167,0.261527027 C4.62070833,0.259905405 4.562375,0.227878378 4.567375,0.312608108 C4.567375,0.313418919 4.566125,0.31422973 4.566125,0.315040541 C4.49904167,4.40314865 2.35279167,5.51071622 1.17279167,7.00341892 C-1.550125,10.4477432 0.982375,14.2236892 3.561125,14.9217973 C5.00404167,15.3122027 3.22779167,14.2305811 2.99904167,11.9461216 C2.722375,9.18531081 6.49029167,7.07801351 6.49029167,4.79233784" id="Fill-15" fill="#1D2243"></path>
                                    <path d="M7.94011419,6.3256128 C7.9218238,6.3148425 7.89525919,6.3076623 7.87740428,6.3331919 C7.82775894,6.83979501 7.2250471,7.92240984 6.46120563,8.91726664 C3.87050275,12.2907647 5.34679839,13.9166814 6.17726913,14.7902726 C6.65935151,15.2972746 6.17726913,14.7902726 7.38182185,14.2721014 C7.47675768,14.2314136 9.73300774,13.1456075 9.97731508,10.6712303 C10.2137837,8.27463861 8.53716473,6.76440289 7.94011419,6.3256128" id="Fill-18" fill="#2BA9DF"></path>
                                </g>
                            </g>
                        </g>
                    </g>
                </g>
            </g>
        </g>
    </g>
</svg>