<?xml version="1.0" standalone="no"?><!DOCTYPE svg PUBLIC "-//W3C//DTD SVG 1.1//EN" "http://www.w3.org/Graphics/SVG/1.1/DTD/svg11.dtd"><svg t="1544794674189" class="icon" style="" viewBox="0 0 1044 1024" version="1.1" xmlns="http://www.w3.org/2000/svg" p-id="1035" xmlns:xlink="http://www.w3.org/1999/xlink" width="16.3125" height="16"><defs><style type="text/css"></style></defs><path d="M167.654902 49.593725c70.073725-16.464314 142.757647-8.031373 213.835294-9.637647 154.403137 2.81098 309.007059-4.015686 463.209412 2.208628 89.951373 2.409412 160.225882 88.746667 156.210196 176.489412 1.204706 195.363137 0.803137 390.927059 0.200784 586.290196 6.224314 95.774118-77.703529 186.528627-175.48549 178.497255-202.390588 0.803137-404.981961 1.40549-607.372549-0.200785-84.530196 3.212549-167.052549-71.479216-158.218039-158.820392V199.178039c-7.228235-68.467451 45.377255-129.305098 107.620392-149.584314M126.092549 383.498039c-25.499608 98.183529 36.944314 185.524706 108.423529 244.956863-9.436863 23.491765-19.676863 46.381176-30.920784 68.86902 32.527059-13.452549 65.054118-26.905098 97.380392-40.558432 41.963922 7.42902 83.927843 14.456471 125.891765 20.881569-5.019608-62.644706-19.275294-133.320784 22.889412-187.130981 52.60549-85.534118 156.812549-110.632157 249.775686-120.872156-37.948235-61.44-81.317647-125.891765-151.190588-153.6-152.19451-72.483137-378.478431-8.232157-422.249412 167.454117m340.530196 144.363922c-48.589804 87.742745-5.822745 205.803922 81.518431 250.980392 69.872941 44.774902 156.009412 37.747451 234.11451 24.495686 22.487843 9.838431 44.774902 20.078431 67.061961 30.318432-24.897255-78.908235 66.258824-119.667451 76.298039-191.146667 16.665098-96.978824-56.420392-189.138824-145.970196-218.252549-110.029804-38.349804-255.196863-4.216471-313.022745 103.604706z" fill="#72BD63" p-id="1036"></path><path d="M288.326275 305.995294c37.546667-16.865882 73.687843 12.649412 72.282352 52.003137-33.330196 32.727843-111.23451 26.101961-96.577254-33.330196 6.023529-4.618039 18.070588-14.054902 24.294902-18.672941zM489.110588 305.995294c36.341961-15.259608 62.644706 24.094118 92.762353 36.542745-32.928627 12.649412-69.672157 55.818039-105.010196 24.294902-30.72-8.432941-9.035294-52.806275 12.247843-60.837647zM559.585882 523.043137c27.90902-12.649412 55.416471-11.64549 82.321569 2.810981-12.448627 24.696471-25.298824 48.991373-37.345882 73.888627-16.464314-24.495686-41.763137-45.377255-44.975687-76.699608zM723.225098 527.259608c25.901176-17.66902 52.203922-18.672941 79.10902-3.212549 4.015686 32.326275-27.306667 50.597647-42.566275 74.691765-11.846275-24.094118-24.094118-47.786667-36.542745-71.479216z" fill="#72BD63" p-id="1037"></path></svg>